o sphere
v 0.000000 0.500000 0.000000
v 0.191342 0.461940 0.000000
v 0.176777 0.461940 0.073223
v 0.135299 0.461940 0.135299
v 0.073223 0.461940 0.176777
v 0.000000 0.461940 0.191342
v -0.073223 0.461940 0.176777
v -0.135299 0.461940 0.135299
v -0.176777 0.461940 0.073223
v -0.191342 0.461940 0.000000
v -0.176777 0.461940 -0.073223
v -0.135299 0.461940 -0.135299
v -0.073223 0.461940 -0.176777
v -0.000000 0.461940 -0.191342
v 0.073223 0.461940 -0.176777
v 0.135299 0.461940 -0.135299
v 0.176777 0.461940 -0.073223
v 0.353553 0.353553 0.000000
v 0.326641 0.353553 0.135299
v 0.250000 0.353553 0.250000
v 0.135299 0.353553 0.326641
v 0.000000 0.353553 0.353553
v -0.135299 0.353553 0.326641
v -0.250000 0.353553 0.250000
v -0.326641 0.353553 0.135299
v -0.353553 0.353553 0.000000
v -0.326641 0.353553 -0.135299
v -0.250000 0.353553 -0.250000
v -0.135299 0.353553 -0.326641
v -0.000000 0.353553 -0.353553
v 0.135299 0.353553 -0.326641
v 0.250000 0.353553 -0.250000
v 0.326641 0.353553 -0.135299
v 0.461940 0.191342 0.000000
v 0.426777 0.191342 0.176777
v 0.326641 0.191342 0.326641
v 0.176777 0.191342 0.426777
v 0.000000 0.191342 0.461940
v -0.176777 0.191342 0.426777
v -0.326641 0.191342 0.326641
v -0.426777 0.191342 0.176777
v -0.461940 0.191342 0.000000
v -0.426777 0.191342 -0.176777
v -0.326641 0.191342 -0.326641
v -0.176777 0.191342 -0.426777
v -0.000000 0.191342 -0.461940
v 0.176777 0.191342 -0.426777
v 0.326641 0.191342 -0.326641
v 0.426777 0.191342 -0.176777
v 0.500000 0.000000 0.000000
v 0.461940 0.000000 0.191342
v 0.353553 0.000000 0.353553
v 0.191342 0.000000 0.461940
v 0.000000 0.000000 0.500000
v -0.191342 0.000000 0.461940
v -0.353553 0.000000 0.353553
v -0.461940 0.000000 0.191342
v -0.500000 0.000000 0.000000
v -0.461940 0.000000 -0.191342
v -0.353553 0.000000 -0.353553
v -0.191342 0.000000 -0.461940
v -0.000000 0.000000 -0.500000
v 0.191342 0.000000 -0.461940
v 0.353553 0.000000 -0.353553
v 0.461940 0.000000 -0.191342
v 0.461940 -0.191342 0.000000
v 0.426777 -0.191342 0.176777
v 0.326641 -0.191342 0.326641
v 0.176777 -0.191342 0.426777
v 0.000000 -0.191342 0.461940
v -0.176777 -0.191342 0.426777
v -0.326641 -0.191342 0.326641
v -0.426777 -0.191342 0.176777
v -0.461940 -0.191342 0.000000
v -0.426777 -0.191342 -0.176777
v -0.326641 -0.191342 -0.326641
v -0.176777 -0.191342 -0.426777
v -0.000000 -0.191342 -0.461940
v 0.176777 -0.191342 -0.426777
v 0.326641 -0.191342 -0.326641
v 0.426777 -0.191342 -0.176777
v 0.353553 -0.353553 0.000000
v 0.326641 -0.353553 0.135299
v 0.250000 -0.353553 0.250000
v 0.135299 -0.353553 0.326641
v 0.000000 -0.353553 0.353553
v -0.135299 -0.353553 0.326641
v -0.250000 -0.353553 0.250000
v -0.326641 -0.353553 0.135299
v -0.353553 -0.353553 0.000000
v -0.326641 -0.353553 -0.135299
v -0.250000 -0.353553 -0.250000
v -0.135299 -0.353553 -0.326641
v -0.000000 -0.353553 -0.353553
v 0.135299 -0.353553 -0.326641
v 0.250000 -0.353553 -0.250000
v 0.326641 -0.353553 -0.135299
v 0.191342 -0.461940 0.000000
v 0.176777 -0.461940 0.073223
v 0.135299 -0.461940 0.135299
v 0.073223 -0.461940 0.176777
v 0.000000 -0.461940 0.191342
v -0.073223 -0.461940 0.176777
v -0.135299 -0.461940 0.135299
v -0.176777 -0.461940 0.073223
v -0.191342 -0.461940 0.000000
v -0.176777 -0.461940 -0.073223
v -0.135299 -0.461940 -0.135299
v -0.073223 -0.461940 -0.176777
v -0.000000 -0.461940 -0.191342
v 0.073223 -0.461940 -0.176777
v 0.135299 -0.461940 -0.135299
v 0.176777 -0.461940 -0.073223
v 0.000000 -0.500000 0.000000
f 1 3 2
f 1 4 3
f 1 5 4
f 1 6 5
f 1 7 6
f 1 8 7
f 1 9 8
f 1 10 9
f 1 11 10
f 1 12 11
f 1 13 12
f 1 14 13
f 1 15 14
f 1 16 15
f 1 17 16
f 1 2 17
f 2 18 3
f 3 18 19
f 3 19 4
f 4 19 20
f 4 20 5
f 5 20 21
f 5 21 6
f 6 21 22
f 6 22 7
f 7 22 23
f 7 23 8
f 8 23 24
f 8 24 9
f 9 24 25
f 9 25 10
f 10 25 26
f 10 26 11
f 11 26 27
f 11 27 12
f 12 27 28
f 12 28 13
f 13 28 29
f 13 29 14
f 14 29 30
f 14 30 15
f 15 30 31
f 15 31 16
f 16 31 32
f 16 32 17
f 17 32 33
f 17 33 2
f 2 33 18
f 18 34 19
f 19 34 35
f 19 35 20
f 20 35 36
f 20 36 21
f 21 36 37
f 21 37 22
f 22 37 38
f 22 38 23
f 23 38 39
f 23 39 24
f 24 39 40
f 24 40 25
f 25 40 41
f 25 41 26
f 26 41 42
f 26 42 27
f 27 42 43
f 27 43 28
f 28 43 44
f 28 44 29
f 29 44 45
f 29 45 30
f 30 45 46
f 30 46 31
f 31 46 47
f 31 47 32
f 32 47 48
f 32 48 33
f 33 48 49
f 33 49 18
f 18 49 34
f 34 50 35
f 35 50 51
f 35 51 36
f 36 51 52
f 36 52 37
f 37 52 53
f 37 53 38
f 38 53 54
f 38 54 39
f 39 54 55
f 39 55 40
f 40 55 56
f 40 56 41
f 41 56 57
f 41 57 42
f 42 57 58
f 42 58 43
f 43 58 59
f 43 59 44
f 44 59 60
f 44 60 45
f 45 60 61
f 45 61 46
f 46 61 62
f 46 62 47
f 47 62 63
f 47 63 48
f 48 63 64
f 48 64 49
f 49 64 65
f 49 65 34
f 34 65 50
f 50 66 51
f 51 66 67
f 51 67 52
f 52 67 68
f 52 68 53
f 53 68 69
f 53 69 54
f 54 69 70
f 54 70 55
f 55 70 71
f 55 71 56
f 56 71 72
f 56 72 57
f 57 72 73
f 57 73 58
f 58 73 74
f 58 74 59
f 59 74 75
f 59 75 60
f 60 75 76
f 60 76 61
f 61 76 77
f 61 77 62
f 62 77 78
f 62 78 63
f 63 78 79
f 63 79 64
f 64 79 80
f 64 80 65
f 65 80 81
f 65 81 50
f 50 81 66
f 66 82 67
f 67 82 83
f 67 83 68
f 68 83 84
f 68 84 69
f 69 84 85
f 69 85 70
f 70 85 86
f 70 86 71
f 71 86 87
f 71 87 72
f 72 87 88
f 72 88 73
f 73 88 89
f 73 89 74
f 74 89 90
f 74 90 75
f 75 90 91
f 75 91 76
f 76 91 92
f 76 92 77
f 77 92 93
f 77 93 78
f 78 93 94
f 78 94 79
f 79 94 95
f 79 95 80
f 80 95 96
f 80 96 81
f 81 96 97
f 81 97 66
f 66 97 82
f 82 98 83
f 83 98 99
f 83 99 84
f 84 99 100
f 84 100 85
f 85 100 101
f 85 101 86
f 86 101 102
f 86 102 87
f 87 102 103
f 87 103 88
f 88 103 104
f 88 104 89
f 89 104 105
f 89 105 90
f 90 105 106
f 90 106 91
f 91 106 107
f 91 107 92
f 92 107 108
f 92 108 93
f 93 108 109
f 93 109 94
f 94 109 110
f 94 110 95
f 95 110 111
f 95 111 96
f 96 111 112
f 96 112 97
f 97 112 113
f 97 113 82
f 82 113 98
f 98 99 114
f 99 100 114
f 100 101 114
f 101 102 114
f 102 103 114
f 103 104 114
f 104 105 114
f 105 106 114
f 106 107 114
f 107 108 114
f 108 109 114
f 109 110 114
f 110 111 114
f 111 112 114
f 112 113 114
f 113 98 114
